<svg id="logo" viewBox="0 0 138.07 41.82" style="height:100%">
         <defs>
           <style>
             .cls-ysl{fill:#ffffff;}.cls-ysldot{fill:#ed2024;}.cls-ysltext{fill:#acabab;}
           </style>
         </defs>
         <title><h1>Digital - YSLAB - Agencja interaktywna</h1></title>
         <g>
           <path class="cls-ysl" d="M7.4.51l4.9,11.05,1.21,2.88h.12l1.17-2.92L19.5.51h7.2L16.78,20.4v9.3h-6.7V20.4L0,.51Z"></path>
           <path class="cls-ysl" d="M36.59,30.24a19.12,19.12,0,0,1-9-2.18l.86-5.64a17,17,0,0,0,8.1,2.14c3.19,0,4.59-1.17,4.59-3.19,0-4.59-13.43-2.65-13.43-12.42,0-4.94,3.19-9,10.59-9a22.63,22.63,0,0,1,8.17,1.52L45.62,7a23.41,23.41,0,0,0-7-1.25C35,5.8,34,7,34,8.6c0,4.55,13.43,2.45,13.43,12.34C47.41,26.7,43.4,30.24,36.59,30.24Z"></path>
           <path class="cls-ysl" d="M69.95,23.78l-.16,5.92H51.3V.51h6.62V23.78Z"></path>
           <path class="cls-ysl" d="M91,24H80.44L78.81,29.7H71.88L82,.51h7.82L100,29.7H92.66ZM85,8.52,82,18.53h7.43l-2.8-10-.78-3.08h-.12Z"></path>
           <path class="cls-ysl" d="M114.5,29.7h-12V.51h11.87c6.34,0,9.54,2.84,9.54,7.47,0,3.27-1.56,5.29-3.89,6.27v.08c3.23.9,4.94,3.19,4.94,6.89C124.94,26.47,121.86,29.7,114.5,29.7Zm-.08-12.46h-5.64v7.08h5.8c2.61,0,3.78-.86,3.78-3.62C118.36,18.26,117.27,17.24,114.43,17.24ZM114.11,6h-5.29v6.35h5.45c2.34,0,3.35-.93,3.35-3.23S116.57,6,114.11,6Z"></path>
           <rect class="cls-ysldot" x="129.69" width="8.38" height="8.38"></rect>
           <path class="cls-ysltext" d="M64.89,35.2h.86v6.52h-.86Z"></path>
           <path class="cls-ysltext" d="M67.65,41.72V35.2h.81l2.73,3.62c.38.5.76,1,1.13,1.52h0c0-.57,0-1.22,0-1.85V35.2h.83v6.52h-.81L69.6,38.1c-.38-.5-.76-1-1.12-1.52h0c0,.57,0,1.22,0,1.85v3.28Z"></path>
           <path class="cls-ysltext" d="M76.68,36H74.5V35.2h5.23V36H77.54v5.74h-.86Z"></path>
           <path class="cls-ysltext" d="M81.08,35.2h3.76V36H81.94v2h2.55v.75H81.94v2.24h3v.77H81.08Z"></path>
           <path class="cls-ysltext" d="M86.49,35.2h1.76a3.68,3.68,0,0,1,1.82.32A1.66,1.66,0,0,1,91,37a1.73,1.73,0,0,1-.84,1.53,2,2,0,0,1-.75.27l2.09,2.87h-1l-2-2.79H87.35v2.79h-.86Zm2,3a2.06,2.06,0,0,0,1.28-.3,1,1,0,0,0,.39-.81,1,1,0,0,0-.53-.93A2.89,2.89,0,0,0,88.2,36h-.85v2.25Z"></path>
           <path class="cls-ysltext" d="M94.8,35.2h.82l2.69,6.52h-.92l-.73-1.82H93.73L93,41.72h-.87Zm-.77,4h2.34l-.53-1.35c-.21-.52-.42-1.08-.62-1.61h0c-.2.53-.41,1.08-.64,1.64Z"></path>
           <path class="cls-ysltext" d="M102.34,35.1a3.78,3.78,0,0,1,1.84.46v.94a3.16,3.16,0,0,0-1.85-.6,2.57,2.57,0,0,0,.07,5.13,2.94,2.94,0,0,0,1.87-.66v.95a3.67,3.67,0,0,1-1.92.5,3.36,3.36,0,1,1,0-6.72Z"></path>
           <path class="cls-ysltext" d="M107.53,36h-2.19V35.2h5.23V36h-2.19v5.74h-.86Z"></path>
           <path class="cls-ysltext" d="M111.93,35.2h.86v6.52h-.86Z"></path>
           <path class="cls-ysltext" d="M114,35.2h.92l1.39,3.65c.22.57.42,1.13.64,1.73h0c.22-.59.43-1.17.66-1.75L119,35.2h.87l-2.5,6.52h-.87Z"></path>
           <path class="cls-ysltext" d="M121.12,35.2h3.76V36H122v2h2.55v.75H122v2.24h3v.77h-3.84Z"></path>
         </g>
       </svg>